# xmcd
#
# Track frame offsets:
# 150
# 22382
# 33307
# 55785
# 74060
# 87473
# 103765
#
# Disc length: 1584 seconds
#
#
# Revision: 0
# Processed by: cddbd v1.5.1PL2 Copyright (c) Steve Scherf et al.
# Submitted via: FreeRIP 2.944 
#
DISCID=64062e07
DTITLE=coley park - across the carpet stars
DYEAR=2003
DGENRE=Space
TTITLE0=cain chair
TTITLE1=people's song
TTITLE2=firing line
TTITLE3=lucky butterfly
TTITLE4=the pigs are gathering
TTITLE5=otherside
TTITLE6=havabanana
EXTD=
EXTT0=
EXTT1=
EXTT2=
EXTT3=
EXTT4=
EXTT5=
EXTT6=
PLAYORDER=
